G04 #@! TF.FileFunction,Profile,NP*
%FSLAX46Y46*%
G04 Gerber Fmt 4.6, Leading zero omitted, Abs format (unit mm)*
G04 Created by KiCad (PCBNEW 4.0.7) date 04/20/18 23:30:44*
%MOMM*%
%LPD*%
G01*
G04 APERTURE LIST*
%ADD10C,0.100000*%
%ADD11C,0.150000*%
G04 APERTURE END LIST*
D10*
D11*
X114300000Y-83820000D02*
X115570000Y-83820000D01*
X115570000Y-110490000D02*
X114300000Y-110490000D01*
X157480000Y-105410000D02*
X157480000Y-83820000D01*
X182880000Y-105410000D02*
X157480000Y-105410000D01*
X182880000Y-83820000D02*
X182880000Y-105410000D01*
X157480000Y-83820000D02*
X182880000Y-83820000D01*
X114300000Y-110490000D02*
X114300000Y-83820000D01*
X151130000Y-110490000D02*
X115570000Y-110490000D01*
X151130000Y-83820000D02*
X151130000Y-110490000D01*
X115570000Y-83820000D02*
X151130000Y-83820000D01*
X82550000Y-120650000D02*
X82550000Y-62230000D01*
X110490000Y-120650000D02*
X82550000Y-120650000D01*
X110490000Y-76200000D02*
X110490000Y-120650000D01*
X218440000Y-76200000D02*
X110490000Y-76200000D01*
X218440000Y-73660000D02*
X218440000Y-76200000D01*
X219710000Y-72390000D02*
X218440000Y-73660000D01*
X224790000Y-72390000D02*
X219710000Y-72390000D01*
X226060000Y-73660000D02*
X224790000Y-72390000D01*
X227330000Y-73660000D02*
X226060000Y-73660000D01*
X229870000Y-76200000D02*
X227330000Y-73660000D01*
X252730000Y-76200000D02*
X229870000Y-76200000D01*
X252730000Y-62230000D02*
X252730000Y-76200000D01*
X82550000Y-62230000D02*
X252730000Y-62230000D01*
M02*
